<svg version="1.1" id="Layer_1" xmlns="http://www.w3.org/2000/svg" xmlns:xlink="http://www.w3.org/1999/xlink" x="0px" y="0px"
	 width="100%" viewBox="0 0 233 229" enable-background="new 0 0 233 229" xml:space="preserve">
<path fill="#322253" opacity="1.000000" stroke="none"
	d="
M20.260021,147.423615
	C28.189072,129.170380 43.755119,122.598999 61.746948,119.147247
	C61.746948,107.478546 61.715904,96.030441 61.757092,84.582596
	C61.788246,75.922783 61.494694,67.234612 62.088058,58.610142
	C63.069004,44.352177 71.851326,34.432232 85.971832,31.775257
	C102.803833,28.608078 119.741570,26.001076 136.638382,23.180700
	C148.118774,21.264420 159.640076,19.575239 171.085464,17.471128
	C191.196732,13.773889 207.192139,25.567043 207.479828,45.920338
	C208.011948,83.563293 207.905167,121.222015 207.509186,158.868332
	C207.327087,176.180099 196.922379,187.340195 181.881470,193.799103
	C159.562927,203.383209 138.368088,199.972321 118.250221,185.900604
	C117.135979,187.677658 116.035149,189.638382 114.742470,191.463181
	C101.925552,209.555862 83.598289,214.886337 62.654720,213.291473
	C50.065594,212.332809 38.728146,207.788330 29.534676,198.740448
	C21.932159,191.258301 17.642614,182.286835 18.125959,171.514877
	C18.481571,163.589615 19.422136,155.690613 20.260021,147.423615
M115.664352,70.998207
	C128.315567,68.995483 140.969177,67.007637 153.617065,64.984169
	C160.624374,63.863113 163.923126,66.530670 163.957855,73.624428
	C164.016602,85.619080 164.002426,97.614311 163.965256,109.609131
	C163.945633,115.944740 161.559677,118.123878 155.422256,118.864479
	C149.849716,119.536919 144.213135,120.436264 138.869904,122.091431
	C128.236542,125.385361 120.580864,134.368042 120.340843,143.326187
	C120.039108,154.588165 126.832710,161.222839 136.174133,165.378357
	C151.591232,172.236588 166.947922,171.673401 181.555649,162.903015
	C189.209427,158.307678 193.244812,151.367294 193.228271,142.189865
	C193.172119,111.036461 193.260651,79.882759 193.182785,48.729439
	C193.151367,36.159794 185.430130,29.924879 172.964050,32.058414
	C145.592224,36.743023 118.218010,41.413738 90.843109,46.080338
	C80.466537,47.849232 76.294678,52.781952 76.283913,63.465649
	C76.263771,83.457191 76.293854,103.448784 76.268570,123.440315
	C76.258972,131.023315 74.454704,132.681259 67.143494,133.633881
	C61.733616,134.338745 56.171864,135.151260 51.123428,137.081436
	C41.750935,140.664856 33.917286,146.394836 32.974422,157.481369
	C32.143211,167.255020 38.132133,175.233536 49.272041,180.164597
	C60.713322,185.229065 72.461929,185.777206 84.342392,181.950089
	C99.975487,176.914078 105.765198,168.854248 105.765770,152.505951
	C105.766579,129.182465 105.756523,105.858978 105.773132,82.535507
	C105.779343,73.819359 106.339043,73.149971 115.664352,70.998207
M124.487427,113.091774
	C132.522079,109.797997 140.556717,106.504227 148.870026,103.096214
	C148.870026,101.110886 148.870026,98.192505 148.870026,95.130562
	C139.983612,96.515106 131.447784,97.758751 122.961304,99.278084
	C121.917908,99.464890 120.432487,101.075554 120.359955,102.111000
	C120.063644,106.341164 120.236412,110.604179 120.236412,115.573235
	C121.979172,114.622330 122.935036,114.100777 124.487427,113.091774
z"/>
<path fill="#FDFDFD" opacity="1.000000" stroke="none"
	d="
M115.246933,71.060440
	C106.339043,73.149971 105.779343,73.819359 105.773132,82.535507
	C105.756523,105.858978 105.766579,129.182465 105.765770,152.505951
	C105.765198,168.854248 99.975487,176.914078 84.342392,181.950089
	C72.461929,185.777206 60.713322,185.229065 49.272041,180.164597
	C38.132133,175.233536 32.143211,167.255020 32.974422,157.481369
	C33.917286,146.394836 41.750935,140.664856 51.123428,137.081436
	C56.171864,135.151260 61.733616,134.338745 67.143494,133.633881
	C74.454704,132.681259 76.258972,131.023315 76.268570,123.440315
	C76.293854,103.448784 76.263771,83.457191 76.283913,63.465649
	C76.294678,52.781952 80.466537,47.849232 90.843109,46.080338
	C118.218010,41.413738 145.592224,36.743023 172.964050,32.058414
	C185.430130,29.924879 193.151367,36.159794 193.182785,48.729439
	C193.260651,79.882759 193.172119,111.036461 193.228271,142.189865
	C193.244812,151.367294 189.209427,158.307678 181.555649,162.903015
	C166.947922,171.673401 151.591232,172.236588 136.174133,165.378357
	C126.832710,161.222839 120.039108,154.588165 120.340843,143.326187
	C120.580864,134.368042 128.236542,125.385361 138.869904,122.091431
	C144.213135,120.436264 149.849716,119.536919 155.422256,118.864479
	C161.559677,118.123878 163.945633,115.944740 163.965256,109.609131
	C164.002426,97.614311 164.016602,85.619080 163.957855,73.624428
	C163.923126,66.530670 160.624374,63.863113 153.617065,64.984169
	C140.969177,67.007637 128.315567,68.995483 115.246933,71.060440
z"/>
<path fill="#F6F5F7" opacity="1.000000" stroke="none"
	d="
M124.189163,113.335503
	C122.935036,114.100777 121.979172,114.622330 120.236412,115.573235
	C120.236412,110.604179 120.063644,106.341164 120.359955,102.111000
	C120.432487,101.075554 121.917908,99.464890 122.961304,99.278084
	C131.447784,97.758751 139.983612,96.515106 148.870026,95.130562
	C148.870026,98.192505 148.870026,101.110886 148.870026,103.096214
	C140.556717,106.504227 132.522079,109.797997 124.189163,113.335503
z"/>
</svg>
