<svg version="1.1" id="Layer_1" xmlns="http://www.w3.org/2000/svg" xmlns:xlink="http://www.w3.org/1999/xlink" x="0px" y="0px"
	 width="100%" viewBox="0 0 274 186" enable-background="new 0 0 274 186" xml:space="preserve">
<path fill="#FDFDFD" opacity="1.000000" stroke="none"
	d="
M1.000000,68.000000
	C1.000000,45.333340 1.000000,23.166683 1.000000,1.000018
	C92.333290,1.000012 183.666580,1.000012 274.999908,1.000006
	C274.999939,62.999939 274.999939,124.999878 274.999969,186.999863
	C183.666763,186.999908 92.333527,186.999908 1.000143,186.999954
	C1.000000,147.500000 1.000000,108.000000 1.000000,68.000000
M47.543167,176.012177
	C56.872715,176.012177 66.202263,176.012192 75.531807,176.012177
	C128.178070,176.012085 180.824356,176.032700 233.470596,175.998322
	C247.926102,175.988892 260.918762,164.262634 260.999878,150.453354
	C261.220032,112.969917 261.186829,75.483604 260.983856,37.999893
	C260.920410,26.286024 252.237717,15.726517 240.816940,13.084492
	C236.184845,12.012925 231.262131,11.869566 226.470947,11.863539
	C165.994476,11.787450 105.517853,11.784692 45.041321,11.831244
	C26.597025,11.845442 15.078706,23.449608 15.077291,41.763577
	C15.074642,76.083611 15.589403,110.414665 14.852488,144.718872
	C14.502687,161.002411 25.754147,177.739944 47.543167,176.012177
z"/>
<path fill="#362556" opacity="1.000000" stroke="none"
	d="
M47.052456,176.012177
	C25.754147,177.739944 14.502687,161.002411 14.852488,144.718872
	C15.589403,110.414665 15.074642,76.083611 15.077291,41.763577
	C15.078706,23.449608 26.597025,11.845442 45.041321,11.831244
	C105.517853,11.784692 165.994476,11.787450 226.470947,11.863539
	C231.262131,11.869566 236.184845,12.012925 240.816940,13.084492
	C252.237717,15.726517 260.920410,26.286024 260.983856,37.999893
	C261.186829,75.483604 261.220032,112.969917 260.999878,150.453354
	C260.918762,164.262634 247.926102,175.988892 233.470596,175.998322
	C180.824356,176.032700 128.178070,176.012085 75.531807,176.012177
	C66.202263,176.012192 56.872715,176.012177 47.052456,176.012177
M107.500008,18.832047
	C86.002426,18.834293 64.504021,18.723776 43.007595,18.882189
	C30.632505,18.973387 22.107403,27.755449 21.986422,40.057278
	C21.935619,45.222893 21.972179,50.389381 21.971027,55.555473
	C21.969740,61.325100 21.970732,67.094727 21.970732,72.952080
	C99.763893,72.952080 176.811768,72.952080 253.832596,72.952080
	C254.035095,72.094238 254.242020,71.622887 254.243637,71.150833
	C254.276901,61.485588 253.878510,51.798306 254.396942,42.160107
	C255.172623,27.739697 244.891113,18.499039 230.984482,18.661924
	C190.161255,19.140083 149.328842,18.831976 107.500008,18.832047
M76.828506,164.301102
	C76.827415,153.483597 76.780388,142.665771 76.858589,131.848846
	C76.877373,129.250702 76.297363,127.741150 73.494217,126.689453
	C67.802773,124.554092 64.328987,120.082230 63.443951,114.049141
	C62.892445,110.289711 62.936432,106.428833 62.895988,102.611542
	C62.819221,95.365547 62.873760,88.118149 62.873760,80.681221
	C48.914444,80.681221 35.695587,80.681221 22.183146,80.681221
	C22.183146,104.480804 21.774145,127.921738 22.379707,151.336441
	C22.630198,161.021973 31.656683,168.807938 40.951630,169.024200
	C51.763512,169.275726 62.586464,169.019928 73.401566,169.184464
	C76.489281,169.231445 77.124313,167.815445 76.828506,164.301102
M213.569534,100.479904
	C213.569550,102.310783 213.502563,104.144539 213.580811,105.972069
	C213.990005,115.528160 211.583038,123.453575 201.689926,127.317352
	C200.883240,127.632408 199.993759,129.012405 199.986160,129.904709
	C199.876404,142.830750 199.910965,155.758011 199.910965,169.126022
	C210.644211,169.126022 220.955658,168.623749 231.197647,169.252655
	C244.114090,170.045822 254.812378,160.613739 254.389252,146.127289
	C253.796631,125.838280 254.245773,105.518974 254.231064,85.212639
	C254.230011,83.761200 254.080261,82.309868 253.970383,80.331520
	C241.205322,80.331520 228.758179,80.252396 216.317093,80.490120
	C215.378281,80.508057 213.767242,82.739899 213.692368,84.014481
	C213.390381,89.156502 213.568542,94.326729 213.569534,100.479904
M123.512909,119.774925
	C122.660515,115.588287 121.295876,111.429260 121.068481,107.208946
	C120.666145,99.742241 120.774361,92.231979 121.033813,84.752602
	C121.159126,81.140205 119.831573,80.112907 116.441116,80.255417
	C111.457657,80.464905 106.453003,80.457191 101.468712,80.258194
	C98.192497,80.127403 97.124237,81.298912 97.207100,84.586746
	C97.412468,92.735588 97.247208,100.893188 97.282814,109.047050
	C97.318832,117.294731 94.082855,123.452682 86.342300,127.009338
	C85.233246,127.518936 83.820160,128.978348 83.806259,130.015076
	C83.633217,142.920929 83.693062,155.829910 83.693062,168.826385
	C100.947136,168.826385 117.668358,168.826385 134.947845,168.826385
	C134.947845,157.097244 134.852112,145.661652 135.000641,134.229263
	C135.051437,130.320816 134.888504,127.309532 130.170135,125.866768
	C127.762100,125.130455 126.000122,122.281349 123.512909,119.774925
M155.398666,83.689003
	C155.398254,92.351791 155.415192,101.014626 155.391357,109.677353
	C155.375473,115.452560 154.070816,121.797722 148.854355,123.927895
	C140.615204,127.292381 141.682907,133.319534 141.782974,139.657547
	C141.869736,145.153717 141.801010,150.652344 141.801010,156.149887
	C141.801010,160.392380 141.801010,164.634888 141.801010,168.730713
	C159.224609,168.730713 175.952423,168.730713 193.028275,168.730713
	C193.028275,155.698654 193.086426,143.061859 192.926239,130.427826
	C192.912277,129.327057 191.692841,127.666069 190.641220,127.245255
	C182.393112,123.944778 179.214539,117.505402 179.102768,109.150803
	C178.991333,100.822678 178.983795,92.490982 179.100006,84.163216
	C179.137695,81.462334 178.421280,80.183090 175.474396,80.268181
	C169.981430,80.426796 164.474014,80.170670 158.988159,80.424065
	C157.751328,80.481194 156.578354,81.920807 155.398666,83.689003
M201.187042,80.156944
	C197.858780,80.156860 194.516022,80.351707 191.206100,80.105293
	C187.421844,79.823563 185.826248,80.924789 185.988144,85.082016
	C186.305222,93.223938 186.049545,101.387047 186.094330,109.541039
	C186.135284,116.998375 189.707474,121.142502 196.049545,121.222878
	C202.548721,121.305244 206.764130,116.882568 206.860153,109.596848
	C206.967575,101.444023 206.745346,93.285194 206.949417,85.136063
	C207.040741,81.489494 205.827103,79.775307 201.187042,80.156944
M128.017807,101.486488
	C128.019958,104.310600 127.994408,107.135048 128.029724,109.958748
	C128.118439,117.050781 131.624557,121.081406 137.790329,121.221672
	C144.003296,121.363007 148.535492,117.108650 148.753952,110.226532
	C149.027908,101.596741 148.786835,92.951591 148.856857,84.313797
	C148.880844,81.357208 147.595001,80.082024 144.656143,80.141106
	C140.504761,80.224571 136.343506,80.306114 132.199463,80.111732
	C128.857849,79.954979 127.859825,81.385010 127.967873,84.545326
	C128.149414,89.855087 128.017731,95.175560 128.017807,101.486488
M75.598038,120.435509
	C84.901169,122.717781 90.452271,118.626991 90.728752,108.931847
	C90.956345,100.951027 90.669907,92.956497 90.828033,84.972336
	C90.902252,81.224640 89.308067,79.935715 85.726395,80.112556
	C81.908455,80.301064 78.066452,80.304207 74.249115,80.109978
	C71.012993,79.945312 69.860535,81.114006 69.932037,84.414658
	C70.115784,92.896988 70.120438,101.389320 69.922607,109.871269
	C69.820152,114.263847 71.133987,117.670876 75.598038,120.435509
z"/>
<path fill="#ABA4B8" opacity="1.000000" stroke="none"
	d="
M108.000015,18.831921
	C149.328842,18.831976 190.161255,19.140083 230.984482,18.661924
	C244.891113,18.499039 255.172623,27.739697 254.396942,42.160107
	C253.878510,51.798306 254.276901,61.485588 254.243637,71.150833
	C254.242020,71.622887 254.035095,72.094238 253.832596,72.952080
	C176.811768,72.952080 99.763893,72.952080 21.970732,72.952080
	C21.970732,67.094727 21.969740,61.325100 21.971027,55.555473
	C21.972179,50.389381 21.935619,45.222893 21.986422,40.057278
	C22.107403,27.755449 30.632505,18.973387 43.007595,18.882189
	C64.504021,18.723776 86.002426,18.834293 108.000015,18.831921
z"/>
<path fill="#FDFDFD" opacity="1.000000" stroke="none"
	d="
M76.827667,164.776642
	C77.124313,167.815445 76.489281,169.231445 73.401566,169.184464
	C62.586464,169.019928 51.763512,169.275726 40.951630,169.024200
	C31.656683,168.807938 22.630198,161.021973 22.379707,151.336441
	C21.774145,127.921738 22.183146,104.480804 22.183146,80.681221
	C35.695587,80.681221 48.914444,80.681221 62.873760,80.681221
	C62.873760,88.118149 62.819221,95.365547 62.895988,102.611542
	C62.936432,106.428833 62.892445,110.289711 63.443951,114.049141
	C64.328987,120.082230 67.802773,124.554092 73.494217,126.689453
	C76.297363,127.741150 76.877373,129.250702 76.858589,131.848846
	C76.780388,142.665771 76.827415,153.483597 76.827667,164.776642
z"/>
<path fill="#FEFEFE" opacity="1.000000" stroke="none"
	d="
M213.569458,99.983215
	C213.568542,94.326729 213.390381,89.156502 213.692368,84.014481
	C213.767242,82.739899 215.378281,80.508057 216.317093,80.490120
	C228.758179,80.252396 241.205322,80.331520 253.970383,80.331520
	C254.080261,82.309868 254.230011,83.761200 254.231064,85.212639
	C254.245773,105.518974 253.796631,125.838280 254.389252,146.127289
	C254.812378,160.613739 244.114090,170.045822 231.197647,169.252655
	C220.955658,168.623749 210.644211,169.126022 199.910965,169.126022
	C199.910965,155.758011 199.876404,142.830750 199.986160,129.904709
	C199.993759,129.012405 200.883240,127.632408 201.689926,127.317352
	C211.583038,123.453575 213.990005,115.528160 213.580811,105.972069
	C213.502563,104.144539 213.569550,102.310783 213.569458,99.983215
z"/>
<path fill="#FDFCFD" opacity="1.000000" stroke="none"
	d="
M123.729523,120.081070
	C126.000122,122.281349 127.762100,125.130455 130.170135,125.866768
	C134.888504,127.309532 135.051437,130.320816 135.000641,134.229263
	C134.852112,145.661652 134.947845,157.097244 134.947845,168.826385
	C117.668358,168.826385 100.947136,168.826385 83.693062,168.826385
	C83.693062,155.829910 83.633217,142.920929 83.806259,130.015076
	C83.820160,128.978348 85.233246,127.518936 86.342300,127.009338
	C94.082855,123.452682 97.318832,117.294731 97.282814,109.047050
	C97.247208,100.893188 97.412468,92.735588 97.207100,84.586746
	C97.124237,81.298912 98.192497,80.127403 101.468712,80.258194
	C106.453003,80.457191 111.457657,80.464905 116.441116,80.255417
	C119.831573,80.112907 121.159126,81.140205 121.033813,84.752602
	C120.774361,92.231979 120.666145,99.742241 121.068481,107.208946
	C121.295876,111.429260 122.660515,115.588287 123.729523,120.081070
z"/>
<path fill="#FDFCFD" opacity="1.000000" stroke="none"
	d="
M155.387329,83.206512
	C156.578354,81.920807 157.751328,80.481194 158.988159,80.424065
	C164.474014,80.170670 169.981430,80.426796 175.474396,80.268181
	C178.421280,80.183090 179.137695,81.462334 179.100006,84.163216
	C178.983795,92.490982 178.991333,100.822678 179.102768,109.150803
	C179.214539,117.505402 182.393112,123.944778 190.641220,127.245255
	C191.692841,127.666069 192.912277,129.327057 192.926239,130.427826
	C193.086426,143.061859 193.028275,155.698654 193.028275,168.730713
	C175.952423,168.730713 159.224609,168.730713 141.801010,168.730713
	C141.801010,164.634888 141.801010,160.392380 141.801010,156.149887
	C141.801010,150.652344 141.869736,145.153717 141.782974,139.657547
	C141.682907,133.319534 140.615204,127.292381 148.854355,123.927895
	C154.070816,121.797722 155.375473,115.452560 155.391357,109.677353
	C155.415192,101.014626 155.398254,92.351791 155.387329,83.206512
z"/>
<path fill="#A9A2B7" opacity="1.000000" stroke="none"
	d="
M201.647476,80.157837
	C205.827103,79.775307 207.040741,81.489494 206.949417,85.136063
	C206.745346,93.285194 206.967575,101.444023 206.860153,109.596848
	C206.764130,116.882568 202.548721,121.305244 196.049545,121.222878
	C189.707474,121.142502 186.135284,116.998375 186.094330,109.541039
	C186.049545,101.387047 186.305222,93.223938 185.988144,85.082016
	C185.826248,80.924789 187.421844,79.823563 191.206100,80.105293
	C194.516022,80.351707 197.858780,80.156860 201.647476,80.157837
z"/>
<path fill="#A9A2B6" opacity="1.000000" stroke="none"
	d="
M128.017822,100.989014
	C128.017731,95.175560 128.149414,89.855087 127.967873,84.545326
	C127.859825,81.385010 128.857849,79.954979 132.199463,80.111732
	C136.343506,80.306114 140.504761,80.224571 144.656143,80.141106
	C147.595001,80.082024 148.880844,81.357208 148.856857,84.313797
	C148.786835,92.951591 149.027908,101.596741 148.753952,110.226532
	C148.535492,117.108650 144.003296,121.363007 137.790329,121.221672
	C131.624557,121.081406 128.118439,117.050781 128.029724,109.958748
	C127.994408,107.135048 128.019958,104.310600 128.017822,100.989014
z"/>
<path fill="#A9A1B6" opacity="1.000000" stroke="none"
	d="
M75.254639,120.224655
	C71.133987,117.670876 69.820152,114.263847 69.922607,109.871269
	C70.120438,101.389320 70.115784,92.896988 69.932037,84.414658
	C69.860535,81.114006 71.012993,79.945312 74.249115,80.109978
	C78.066452,80.304207 81.908455,80.301064 85.726395,80.112556
	C89.308067,79.935715 90.902252,81.224640 90.828033,84.972336
	C90.669907,92.956497 90.956345,100.951027 90.728752,108.931847
	C90.452271,118.626991 84.901169,122.717781 75.254639,120.224655
z"/>
</svg>
